<?xml version="1.0" standalone="no"?>
<!DOCTYPE svg PUBLIC "-//W3C//DTD SVG 20010904//EN"
 "http://www.w3.org/TR/2001/REC-SVG-20010904/DTD/svg10.dtd">
<svg version="1.0" xmlns="http://www.w3.org/2000/svg"
 width="16.000000pt" height="16.000000pt" viewBox="0 0 16.000000 16.000000"
 preserveAspectRatio="xMidYMid meet">
<metadata>
Created by potrace 1.11, written by Peter Selinger 2001-2013
</metadata>
<g transform="translate(0.000000,16.000000) scale(0.003125,-0.003125)"
fill="#000000" stroke="none">
<path d="M2405 4354 c-498 -31 -937 -181 -1162 -397 -86 -82 -123 -143 -129
-209 -5 -58 -53 -2049 -55 -2273 -1 -153 4 -175 60 -252 28 -39 62 -58 403
-228 251 -125 399 -193 453 -208 78 -21 96 -22 585 -22 490 0 507 1 585 22
107 30 782 364 832 412 20 19 47 59 61 89 22 49 24 65 23 186 -2 185 -50 2201
-54 2261 -5 68 -28 112 -99 190 -182 199 -554 352 -992 410 -114 15 -405 26
-511 19z m325 -529 c86 -44 104 -160 35 -225 -14 -13 -25 -28 -25 -34 0 -6 27
-84 61 -174 33 -90 58 -170 55 -178 -4 -10 -22 -14 -65 -14 l-59 0 -58 155
c-31 86 -60 154 -64 153 -3 -2 -36 -19 -73 -38 l-67 -35 0 -118 0 -118 -57 3
-58 3 -5 305 c-3 168 -1 311 4 318 13 19 337 17 376 -3z m-760 -1180 c217
-113 398 -209 403 -214 5 -5 -8 -41 -28 -80 -27 -55 -40 -71 -53 -67 -9 3
-178 40 -374 82 l-358 78 0 60 c0 65 12 346 15 346 1 0 179 -92 395 -205z
m1585 5 c4 -111 6 -202 4 -204 -2 -2 -164 -38 -359 -80 -195 -43 -363 -79
-372 -82 -13 -4 -26 12 -53 67 -20 40 -33 75 -28 80 9 9 783 416 794 418 4 1
10 -89 14 -199z m-927 -467 c30 -11 62 -36 110 -88 l67 -74 388 -81 388 -81
47 16 c29 10 72 39 112 75 l65 59 6 -112 c9 -164 10 -510 1 -524 -10 -16 -655
-330 -715 -348 -75 -22 -107 -20 -107 7 0 62 -155 260 -218 278 -48 13 -376
13 -424 0 -63 -18 -218 -216 -218 -278 0 -17 -6 -22 -28 -22 -58 0 -143 35
-468 195 l-334 163 1 209 c1 114 4 258 8 320 l6 112 65 -59 c40 -36 83 -65
112 -75 l47 -16 388 81 388 82 67 72 c51 56 80 78 120 93 29 12 60 18 68 16 8
-3 34 -12 58 -20z"/>
<path d="M2470 3655 c0 -41 3 -75 6 -75 3 0 41 18 83 40 154 80 156 110 5 110
l-94 0 0 -75z"/>
</g>
</svg>
